<svg width="977" height="165" viewBox="0 0 977 165" fill="none" xmlns="http://www.w3.org/2000/svg">
<g filter="url(#filter0_d_0_3)">
<path d="M57.1738 36.918C57.584 36.918 57.9372 36.9749 58.2334 37.0889C58.5296 37.18 58.7917 37.3509 59.0195 37.6016C59.2702 37.8522 59.498 38.1826 59.7031 38.5928C59.9082 39.0029 60.1247 39.5042 60.3525 40.0967L76.041 82.001C76.1549 82.32 76.2347 82.6048 76.2803 82.8555C76.3258 83.1061 76.3486 83.3568 76.3486 83.6074C76.3486 84.4277 76.098 85.0316 75.5967 85.4189C75.1182 85.8063 74.6055 86 74.0586 86H54.6787C54.0863 86 53.585 85.9316 53.1748 85.7949C52.7874 85.6354 52.457 85.4531 52.1836 85.248C51.9102 85.043 51.6937 84.8265 51.5342 84.5986C51.3975 84.3708 51.3063 84.1657 51.2607 83.9834L50.8848 82.7871H41.2803L41.041 83.8125C40.9727 84.1543 40.8929 84.4619 40.8018 84.7354C40.7106 84.986 40.5967 85.2139 40.46 85.4189C40.3232 85.6012 40.1296 85.7493 39.8789 85.8633C39.651 85.9544 39.3434 86 38.9561 86H35.4355C34.7064 86 34.3418 85.7152 34.3418 85.1455C34.3418 84.9404 34.376 84.7012 34.4443 84.4277C34.5355 84.1315 34.6494 83.7897 34.7861 83.4023L49.0732 40.165C49.415 39.0941 49.8024 38.2965 50.2354 37.7725C50.6683 37.2484 51.2835 36.9635 52.0811 36.918H57.1738ZM42.3398 78.583H49.7227L45.9287 65.2188L42.3398 78.583ZM57.5498 40.8828C57.3675 40.4043 57.1396 40.1081 56.8662 39.9941C56.6156 39.8574 56.1712 39.7891 55.5332 39.7891H54.3369L70.5039 83.1289H72.1445C72.5547 83.1289 72.8281 83.0492 72.9648 82.8896C73.1243 82.7074 73.113 82.3883 72.9307 81.9326L57.5498 40.8828ZM104.239 49.8037C105.698 49.8037 107.156 49.8949 108.614 50.0771C110.073 50.2367 111.451 50.4531 112.75 50.7266C114.072 51 115.268 51.3076 116.339 51.6494C117.433 51.9684 118.321 52.2874 119.005 52.6064C119.119 52.652 119.233 52.7204 119.347 52.8115C119.483 52.9027 119.552 53.0736 119.552 53.3242C119.552 53.3926 119.54 53.4837 119.518 53.5977C119.495 53.7116 119.472 53.8255 119.449 53.9395L119.039 55.9561C118.993 56.2295 118.925 56.4004 118.834 56.4688C118.766 56.5143 118.697 56.5371 118.629 56.5371C118.515 56.5371 118.299 56.5029 117.979 56.4346C117.66 56.3662 117.319 56.332 116.954 56.332C115.655 56.332 114.63 56.6852 113.878 57.3916C113.126 58.0752 112.647 59.2829 112.442 61.0146L110.528 76.9766C110.346 78.3893 109.868 79.7109 109.093 80.9414C108.341 82.1719 107.247 83.2542 105.812 84.1885C104.376 85.1227 102.599 85.8519 100.479 86.376C98.3831 86.9229 95.9222 87.1963 93.0967 87.1963C91.3193 87.1963 89.5876 87.0824 87.9014 86.8545C86.2152 86.6494 84.6543 86.3874 83.2188 86.0684C81.806 85.7721 80.5641 85.4759 79.4932 85.1797C78.445 84.8607 77.6589 84.61 77.1348 84.4277C76.9525 84.3822 76.8158 84.3252 76.7246 84.2568C76.6107 84.1657 76.5537 84.029 76.5537 83.8467C76.5537 83.7555 76.5651 83.653 76.5879 83.5391C76.6107 83.4251 76.6449 83.2884 76.6904 83.1289L77.1006 81.2148C77.1462 81.0326 77.2259 80.8844 77.3398 80.7705C77.4538 80.6566 77.6589 80.5996 77.9551 80.5996C78.707 80.5996 79.459 80.5654 80.2109 80.4971C80.9857 80.4059 81.6921 80.1895 82.3301 79.8477C82.9909 79.5059 83.5605 78.9818 84.0391 78.2754C84.5404 77.569 84.8822 76.5778 85.0645 75.3018L87.457 58.8271C87.7077 57.0954 88.3457 55.6484 89.3711 54.4863C90.3965 53.3242 91.6611 52.4014 93.165 51.7178C94.6917 51.0114 96.4121 50.5215 98.3262 50.248C100.24 49.9518 102.211 49.8037 104.239 49.8037ZM97.7451 84.0176C100.89 83.653 103.271 82.7757 104.889 81.3857C106.529 79.973 107.475 78.2184 107.726 76.1221L109.537 61.0146C109.742 59.2829 110.243 57.8473 111.041 56.708C111.861 55.5687 112.978 54.8737 114.391 54.623C113.115 54.623 112.021 54.7939 111.109 55.1357C110.221 55.4775 109.469 55.9447 108.854 56.5371C108.238 57.1068 107.76 57.779 107.418 58.5537C107.099 59.3285 106.894 60.1488 106.803 61.0146L104.991 76.1221C104.877 77.0107 104.638 77.8652 104.273 78.6855C103.932 79.5059 103.465 80.2692 102.872 80.9756C102.28 81.6592 101.55 82.2744 100.685 82.8213C99.8415 83.3454 98.8617 83.7441 97.7451 84.0176ZM147.716 51.6494C148.217 51.262 148.821 50.943 149.527 50.6924C150.234 50.4417 151.008 50.3164 151.852 50.3164C154.039 50.3164 155.737 51.0684 156.944 52.5723C158.175 54.0762 158.79 56.2865 158.79 59.2031V84.3936C158.79 84.7809 158.733 85.0885 158.619 85.3164C158.528 85.5215 158.403 85.681 158.243 85.7949C158.106 85.8861 157.936 85.943 157.73 85.9658C157.525 85.9886 157.32 86 157.115 86H154.928C154.335 86 153.948 85.8291 153.766 85.4873C153.606 85.1455 153.526 84.7809 153.526 84.3936V58.8613C153.526 57.5625 153.287 56.5713 152.809 55.8877C152.353 55.2041 151.612 54.8623 150.587 54.8623C150.063 54.8623 149.527 55.0104 148.98 55.3066C148.456 55.5801 148.035 55.8763 147.716 56.1953V81.2148C147.716 82.0124 147.67 82.7074 147.579 83.2998C147.488 83.8923 147.271 84.3936 146.93 84.8037C146.588 85.1911 146.098 85.4873 145.46 85.6924C144.822 85.8975 143.956 86 142.862 86H127.037C126.148 86 125.408 85.8975 124.815 85.6924C124.246 85.4873 123.79 85.1911 123.448 84.8037C123.106 84.4163 122.867 83.9264 122.73 83.334C122.594 82.7415 122.525 82.0465 122.525 81.249V34.7646C122.525 33.9899 122.594 33.3063 122.73 32.7139C122.867 32.0986 123.129 31.5973 123.517 31.21C123.904 30.8226 124.439 30.5264 125.123 30.3213C125.807 30.1162 126.695 30.0137 127.789 30.0137H142.76C143.785 30.0137 144.617 30.1048 145.255 30.2871C145.916 30.4694 146.428 30.7656 146.793 31.1758C147.158 31.5632 147.397 32.0531 147.511 32.6455C147.647 33.238 147.716 33.9443 147.716 34.7646V51.6494ZM144.811 35.0723C144.811 34.571 144.776 34.1722 144.708 33.876C144.64 33.5798 144.503 33.3633 144.298 33.2266C144.093 33.0671 143.819 32.9759 143.478 32.9531C143.136 32.9076 142.691 32.8848 142.145 32.8848V83.1289C142.691 83.1289 143.136 83.1175 143.478 83.0947C143.819 83.0492 144.093 82.958 144.298 82.8213C144.503 82.6618 144.64 82.4453 144.708 82.1719C144.776 81.8757 144.811 81.4655 144.811 80.9414V35.0723ZM190.304 51.6494C190.805 51.262 191.409 50.943 192.115 50.6924C192.822 50.4417 193.596 50.3164 194.439 50.3164C196.627 50.3164 198.325 51.0684 199.532 52.5723C200.763 54.0762 201.378 56.2865 201.378 59.2031V84.3936C201.378 84.7809 201.321 85.0885 201.207 85.3164C201.116 85.5215 200.991 85.681 200.831 85.7949C200.694 85.8861 200.523 85.943 200.318 85.9658C200.113 85.9886 199.908 86 199.703 86H197.516C196.923 86 196.536 85.8291 196.354 85.4873C196.194 85.1455 196.114 84.7809 196.114 84.3936V58.8613C196.114 57.5625 195.875 56.5713 195.396 55.8877C194.941 55.2041 194.2 54.8623 193.175 54.8623C192.651 54.8623 192.115 55.0104 191.568 55.3066C191.044 55.5801 190.623 55.8763 190.304 56.1953V81.2148C190.304 82.0124 190.258 82.7074 190.167 83.2998C190.076 83.8923 189.859 84.3936 189.518 84.8037C189.176 85.1911 188.686 85.4873 188.048 85.6924C187.41 85.8975 186.544 86 185.45 86H169.625C168.736 86 167.996 85.8975 167.403 85.6924C166.834 85.4873 166.378 85.1911 166.036 84.8037C165.694 84.4163 165.455 83.9264 165.318 83.334C165.182 82.7415 165.113 82.0465 165.113 81.249V34.7646C165.113 33.9899 165.182 33.3063 165.318 32.7139C165.455 32.0986 165.717 31.5973 166.104 31.21C166.492 30.8226 167.027 30.5264 167.711 30.3213C168.395 30.1162 169.283 30.0137 170.377 30.0137H185.348C186.373 30.0137 187.205 30.1048 187.843 30.2871C188.504 30.4694 189.016 30.7656 189.381 31.1758C189.745 31.5632 189.985 32.0531 190.099 32.6455C190.235 33.238 190.304 33.9443 190.304 34.7646V51.6494ZM187.398 35.0723C187.398 34.571 187.364 34.1722 187.296 33.876C187.228 33.5798 187.091 33.3633 186.886 33.2266C186.681 33.0671 186.407 32.9759 186.065 32.9531C185.724 32.9076 185.279 32.8848 184.732 32.8848V83.1289C185.279 83.1289 185.724 83.1175 186.065 83.0947C186.407 83.0492 186.681 82.958 186.886 82.8213C187.091 82.6618 187.228 82.4453 187.296 82.1719C187.364 81.8757 187.398 81.4655 187.398 80.9414V35.0723ZM229.679 74.5156C229.2 74.5156 228.961 74.265 228.961 73.7637V65.5605C228.961 65.082 229.2 64.8428 229.679 64.8428H248.751C249.229 64.8428 249.469 65.082 249.469 65.5605V73.7637C249.469 74.265 249.229 74.5156 248.751 74.5156H229.679ZM274.591 62.2109C274.112 62.2109 273.873 61.9603 273.873 61.459V58.7246C273.873 58.2461 274.112 58.0068 274.591 58.0068H278.146V50.248C278.146 49.9062 278.191 49.5645 278.282 49.2227C278.396 48.8809 278.681 48.6188 279.137 48.4365L298.004 41.4639C298.87 41.1449 299.588 40.9056 300.157 40.7461C300.727 40.5866 301.228 40.5068 301.661 40.5068C301.821 40.5068 301.992 40.541 302.174 40.6094C302.379 40.6549 302.561 40.7461 302.721 40.8828C302.903 41.0195 303.051 41.2132 303.165 41.4639C303.279 41.6917 303.336 41.9766 303.336 42.3184V58.0068H309.488C309.967 58.0068 310.206 58.2461 310.206 58.7246V61.459C310.206 61.9603 309.967 62.2109 309.488 62.2109H303.336V75.9854C303.336 77.6032 303.598 78.7425 304.122 79.4033C304.669 80.0641 305.501 80.3945 306.617 80.3945C306.868 80.3945 307.13 80.3717 307.403 80.3262C307.677 80.2578 307.927 80.2008 308.155 80.1553C308.406 80.0869 308.634 80.0299 308.839 79.9844C309.044 79.916 309.215 79.8818 309.352 79.8818C309.602 79.8818 309.728 80.0299 309.728 80.3262V82.958C309.728 83.4137 309.636 83.7214 309.454 83.8809C309.272 84.0404 309.112 84.1429 308.976 84.1885C308.11 84.5531 307.084 84.9176 305.899 85.2822C304.737 85.6468 303.473 85.9658 302.105 86.2393C300.761 86.5355 299.337 86.7633 297.833 86.9229C296.329 87.1051 294.825 87.1963 293.321 87.1963C291.157 87.1963 289.14 87.0824 287.271 86.8545C285.426 86.6494 283.819 86.1595 282.452 85.3848C281.108 84.61 280.048 83.4593 279.273 81.9326C278.521 80.4059 278.146 78.3324 278.146 75.7119V62.2109H274.591ZM300.431 45.3945C300.431 44.9388 300.374 44.5742 300.26 44.3008C300.169 44.0046 299.929 43.8564 299.542 43.8564C299.405 43.8564 299.223 43.8792 298.995 43.9248C298.79 43.9704 298.562 44.0501 298.312 44.1641L297.765 44.4033V76.874C297.765 77.8994 297.936 78.7311 298.277 79.3691C298.619 80.0072 299.041 80.5085 299.542 80.873C300.043 81.2376 300.579 81.4883 301.148 81.625C301.718 81.7389 302.231 81.7959 302.687 81.7959C302.345 81.5225 302.026 81.249 301.729 80.9756C301.456 80.6794 301.217 80.349 301.012 79.9844C300.829 79.597 300.681 79.1755 300.567 78.7197C300.476 78.2412 300.431 77.6715 300.431 77.0107V45.3945ZM340.626 51.6494C341.127 51.262 341.731 50.943 342.438 50.6924C343.144 50.4417 343.919 50.3164 344.762 50.3164C346.949 50.3164 348.647 51.0684 349.854 52.5723C351.085 54.0762 351.7 56.2865 351.7 59.2031V84.3936C351.7 84.7809 351.643 85.0885 351.529 85.3164C351.438 85.5215 351.313 85.681 351.153 85.7949C351.017 85.8861 350.846 85.943 350.641 85.9658C350.436 85.9886 350.23 86 350.025 86H347.838C347.245 86 346.858 85.8291 346.676 85.4873C346.516 85.1455 346.437 84.7809 346.437 84.3936V58.8613C346.437 57.5625 346.197 56.5713 345.719 55.8877C345.263 55.2041 344.522 54.8623 343.497 54.8623C342.973 54.8623 342.438 55.0104 341.891 55.3066C341.367 55.5801 340.945 55.8763 340.626 56.1953V81.2148C340.626 82.0124 340.58 82.7074 340.489 83.2998C340.398 83.8923 340.182 84.3936 339.84 84.8037C339.498 85.1911 339.008 85.4873 338.37 85.6924C337.732 85.8975 336.866 86 335.772 86H319.947C319.059 86 318.318 85.8975 317.726 85.6924C317.156 85.4873 316.7 85.1911 316.358 84.8037C316.017 84.4163 315.777 83.9264 315.641 83.334C315.504 82.7415 315.436 82.0465 315.436 81.249V34.7646C315.436 33.9899 315.504 33.3063 315.641 32.7139C315.777 32.0986 316.039 31.5973 316.427 31.21C316.814 30.8226 317.35 30.5264 318.033 30.3213C318.717 30.1162 319.605 30.0137 320.699 30.0137H335.67C336.695 30.0137 337.527 30.1048 338.165 30.2871C338.826 30.4694 339.339 30.7656 339.703 31.1758C340.068 31.5632 340.307 32.0531 340.421 32.6455C340.558 33.238 340.626 33.9443 340.626 34.7646V51.6494ZM337.721 35.0723C337.721 34.571 337.687 34.1722 337.618 33.876C337.55 33.5798 337.413 33.3633 337.208 33.2266C337.003 33.0671 336.729 32.9759 336.388 32.9531C336.046 32.9076 335.602 32.8848 335.055 32.8848V83.1289C335.602 83.1289 336.046 83.1175 336.388 83.0947C336.729 83.0492 337.003 82.958 337.208 82.8213C337.413 82.6618 337.55 82.4453 337.618 82.1719C337.687 81.8757 337.721 81.4655 337.721 80.9414V35.0723ZM388.99 80.3262C389.605 80.3262 390.164 80.2464 390.665 80.0869C391.166 79.9046 391.611 79.7109 391.998 79.5059C392.408 79.3008 392.739 79.1185 392.989 78.959C393.263 78.7767 393.468 78.6855 393.604 78.6855C393.81 78.6855 393.946 78.7197 394.015 78.7881C394.106 78.8564 394.208 78.9818 394.322 79.1641L395.519 81.0098C395.632 81.1921 395.689 81.3516 395.689 81.4883C395.689 81.6478 395.644 81.7731 395.553 81.8643C395.462 81.9554 395.37 82.0352 395.279 82.1035C394.527 82.6276 393.604 83.1973 392.511 83.8125C391.417 84.4049 390.141 84.9518 388.683 85.4531C387.247 85.9544 385.618 86.3646 383.795 86.6836C381.972 87.0254 379.967 87.1963 377.779 87.1963C376.07 87.1963 374.361 87.0596 372.652 86.7861C370.943 86.5127 369.303 86.0798 367.73 85.4873C366.181 84.8949 364.734 84.1201 363.39 83.1631C362.045 82.2061 360.872 81.0326 359.869 79.6426C358.889 78.2526 358.115 76.6462 357.545 74.8232C356.975 72.9775 356.69 70.8698 356.69 68.5C356.69 66.1758 356.975 64.1022 357.545 62.2793C358.115 60.4336 358.889 58.8158 359.869 57.4258C360.872 56.0358 362.045 54.8623 363.39 53.9053C364.734 52.9255 366.181 52.1393 367.73 51.5469C369.303 50.9316 370.943 50.4873 372.652 50.2139C374.361 49.9404 376.07 49.8037 377.779 49.8037C380.628 49.8037 383.271 50.1227 385.709 50.7607C388.17 51.3988 390.3 52.4469 392.101 53.9053C393.901 55.3636 395.313 57.2777 396.339 59.6475C397.364 62.0173 397.877 64.9225 397.877 68.3633V70.2773C397.877 70.6875 397.774 71.0065 397.569 71.2344C397.364 71.4622 397.022 71.5762 396.544 71.5762H382.394C382.576 73.2624 382.895 74.6751 383.351 75.8145C383.829 76.931 384.365 77.8311 384.957 78.5146C385.572 79.1755 386.233 79.6426 386.939 79.916C387.646 80.1895 388.329 80.3262 388.99 80.3262ZM393.023 67.3721C393.023 65.5492 392.875 64.0452 392.579 62.8604C392.306 61.6527 391.93 60.6956 391.451 59.9893C390.973 59.2601 390.403 58.7474 389.742 58.4512C389.104 58.1549 388.432 58.0068 387.726 58.0068C387.201 58.0068 386.632 58.1094 386.017 58.3145C385.401 58.5195 384.82 58.9525 384.273 59.6133C383.749 60.2741 383.294 61.2197 382.906 62.4502C382.542 63.6807 382.325 65.3213 382.257 67.3721H393.023ZM386.734 82.2402C386.005 82.0807 385.208 81.7617 384.342 81.2832C383.476 80.7819 382.667 80.0186 381.915 78.9932C381.163 77.9678 380.536 76.6234 380.035 74.96C379.534 73.2965 379.283 71.2116 379.283 68.7051C379.283 66.4036 379.5 64.4554 379.933 62.8604C380.388 61.2653 380.969 59.9551 381.676 58.9297C382.382 57.9043 383.18 57.141 384.068 56.6396C384.957 56.1156 385.846 55.7852 386.734 55.6484C385.367 55.694 384.057 55.9674 382.804 56.4688C381.573 56.9473 380.479 57.7106 379.522 58.7588C378.588 59.807 377.848 61.1514 377.301 62.792C376.754 64.4326 376.48 66.4036 376.48 68.7051C376.48 71.166 376.799 73.2624 377.438 74.9941C378.076 76.7031 378.884 78.1045 379.864 79.1982C380.867 80.2692 381.972 81.0439 383.18 81.5225C384.387 82.001 385.572 82.2402 386.734 82.2402ZM450.548 71.7812V81.2148C450.548 82.0352 450.491 82.7529 450.377 83.3682C450.263 83.9606 450.024 84.4505 449.659 84.8379C449.295 85.2253 448.771 85.5215 448.087 85.7266C447.426 85.9089 446.537 86 445.421 86H430.587C429.493 86 428.604 85.8975 427.921 85.6924C427.237 85.4873 426.702 85.1911 426.314 84.8037C425.927 84.4163 425.665 83.9264 425.528 83.334C425.392 82.7415 425.323 82.0465 425.323 81.249V71.7812H422.486C422.008 71.7812 421.769 71.5306 421.769 71.0293V68.2949C421.769 67.8164 422.008 67.5771 422.486 67.5771H425.323V46.9326C425.323 44.4717 425.574 42.3298 426.075 40.5068C426.599 38.6839 427.294 37.123 428.16 35.8242C429.049 34.5026 430.086 33.4202 431.271 32.5771C432.455 31.734 433.731 31.0732 435.099 30.5947C436.466 30.0934 437.879 29.7516 439.337 29.5693C440.818 29.387 442.288 29.2959 443.746 29.2959C444.999 29.2959 446.31 29.3757 447.677 29.5352C449.067 29.6947 450.4 29.9111 451.676 30.1846C452.975 30.4352 454.182 30.7428 455.299 31.1074C456.415 31.4492 457.361 31.8024 458.136 32.167C458.318 32.2581 458.512 32.3949 458.717 32.5771C458.922 32.7594 459.024 33.0785 459.024 33.5342V35.9268C459.024 36.223 458.967 36.4053 458.854 36.4736C458.74 36.5192 458.637 36.542 458.546 36.542C458.25 36.542 457.931 36.4736 457.589 36.3369C457.247 36.2002 456.734 36.1318 456.051 36.1318C455.299 36.1318 454.581 36.2913 453.897 36.6104C453.237 36.9066 452.656 37.4421 452.154 38.2168C451.653 38.9915 451.254 40.0397 450.958 41.3613C450.685 42.6829 450.548 44.3464 450.548 46.3516V67.5771H457.384C457.862 67.5771 458.102 67.8164 458.102 68.2949V71.0293C458.102 71.5306 457.862 71.7812 457.384 71.7812H450.548ZM444.977 83.1289C445.523 83.1289 445.968 83.1175 446.31 83.0947C446.651 83.0492 446.925 82.958 447.13 82.8213C447.335 82.6618 447.472 82.4453 447.54 82.1719C447.608 81.8757 447.643 81.4655 447.643 80.9414V44.9844C447.643 42.9792 447.813 41.3499 448.155 40.0967C448.497 38.8206 448.93 37.8066 449.454 37.0547C449.978 36.2799 450.571 35.7103 451.231 35.3457C451.892 34.9583 452.53 34.6507 453.146 34.4229C452.325 34.4001 451.437 34.571 450.479 34.9355C449.522 35.2773 448.634 35.8584 447.813 36.6787C446.993 37.499 446.31 38.5928 445.763 39.96C445.239 41.3044 444.977 42.9792 444.977 44.9844V83.1289ZM462.203 55.751C462.203 54.9762 462.271 54.2926 462.408 53.7002C462.545 53.085 462.807 52.5837 463.194 52.1963C463.582 51.8089 464.117 51.5127 464.801 51.3076C465.484 51.1025 466.373 51 467.467 51H482.438C483.486 51 484.329 51.1025 484.967 51.3076C485.605 51.5127 486.106 51.8203 486.471 52.2305C486.835 52.6406 487.075 53.1533 487.188 53.7686C487.325 54.3838 487.394 55.1016 487.394 55.9219V58.4512L494.981 51.0684C495.483 50.5898 495.95 50.3506 496.383 50.3506C496.633 50.3506 496.85 50.4076 497.032 50.5215C497.237 50.6126 497.408 50.7266 497.545 50.8633L499.083 52.4697C499.425 52.8115 499.596 53.1875 499.596 53.5977C499.596 53.8483 499.516 54.1104 499.356 54.3838C499.22 54.6344 498.992 54.8851 498.673 55.1357L487.394 63.8857V81.1807C487.394 81.9782 487.337 82.6846 487.223 83.2998C487.109 83.8923 486.858 84.3936 486.471 84.8037C486.083 85.1911 485.525 85.4873 484.796 85.6924C484.067 85.8975 483.076 86 481.822 86H467.467C466.373 86 465.484 85.8975 464.801 85.6924C464.117 85.4873 463.582 85.1911 463.194 84.8037C462.807 84.4163 462.545 83.9264 462.408 83.334C462.271 82.7415 462.203 82.0465 462.203 81.249V55.751ZM484.488 56.0586C484.488 55.5573 484.454 55.1585 484.386 54.8623C484.317 54.5661 484.181 54.3496 483.976 54.2129C483.771 54.0534 483.497 53.9622 483.155 53.9395C482.813 53.8939 482.369 53.8711 481.822 53.8711V83.1289C482.369 83.1289 482.813 83.1175 483.155 83.0947C483.497 83.0492 483.771 82.958 483.976 82.8213C484.181 82.6618 484.317 82.4453 484.386 82.1719C484.454 81.8757 484.488 81.4655 484.488 80.9414V56.0586ZM519.967 87.1963C518.258 87.1963 516.549 87.0596 514.84 86.7861C513.131 86.5127 511.49 86.0798 509.918 85.4873C508.368 84.8949 506.922 84.1201 505.577 83.1631C504.233 82.2061 503.059 81.0326 502.057 79.6426C501.077 78.2526 500.302 76.6462 499.732 74.8232C499.163 72.9775 498.878 70.8698 498.878 68.5C498.878 66.1758 499.163 64.1022 499.732 62.2793C500.302 60.4336 501.077 58.8158 502.057 57.4258C503.059 56.0358 504.233 54.8623 505.577 53.9053C506.922 52.9255 508.368 52.1393 509.918 51.5469C511.49 50.9316 513.131 50.4873 514.84 50.2139C516.549 49.9404 518.258 49.8037 519.967 49.8037C521.539 49.8037 523.146 49.9062 524.786 50.1113C526.45 50.2936 528.056 50.6468 529.605 51.1709C531.178 51.6722 532.647 52.3672 534.015 53.2559C535.405 54.1217 536.612 55.2383 537.638 56.6055C538.686 57.9727 539.506 59.6133 540.099 61.5273C540.714 63.4186 541.021 65.6517 541.021 68.2266C541.021 70.8698 540.725 73.1826 540.133 75.165C539.54 77.1247 538.72 78.8109 537.672 80.2236C536.646 81.6136 535.45 82.7643 534.083 83.6758C532.716 84.5872 531.246 85.305 529.674 85.8291C528.124 86.3304 526.518 86.6836 524.854 86.8887C523.191 87.0938 521.562 87.1963 519.967 87.1963ZM530.46 78.9932C531.166 78.9932 531.861 78.8451 532.545 78.5488C533.251 78.2298 533.867 77.6715 534.391 76.874C534.938 76.0765 535.37 74.9827 535.689 73.5928C536.031 72.18 536.202 70.3913 536.202 68.2266C536.202 66.1758 536.031 64.4896 535.689 63.168C535.37 61.8464 534.938 60.8096 534.391 60.0576C533.844 59.2829 533.229 58.7474 532.545 58.4512C531.861 58.1549 531.166 58.0068 530.46 58.0068C529.913 58.0068 529.298 58.1208 528.614 58.3486C527.953 58.5765 527.327 59.0664 526.734 59.8184C526.165 60.5475 525.686 61.6071 525.299 62.9971C524.911 64.3643 524.718 66.1986 524.718 68.5C524.718 70.8014 524.877 72.6471 525.196 74.0371C525.515 75.4271 525.937 76.4867 526.461 77.2158C526.985 77.945 527.589 78.4235 528.272 78.6514C528.979 78.8792 529.708 78.9932 530.46 78.9932ZM527.896 80.3604C527.145 80.2236 526.404 79.9616 525.675 79.5742C524.946 79.1868 524.296 78.5602 523.727 77.6943C523.157 76.8057 522.69 75.6322 522.325 74.1738C521.983 72.6927 521.812 70.8014 521.812 68.5C521.812 66.9733 521.904 65.6289 522.086 64.4668C522.291 63.3047 522.553 62.3021 522.872 61.459C523.214 60.6159 523.601 59.9095 524.034 59.3398C524.467 58.7702 524.9 58.3031 525.333 57.9385C525.789 57.5511 526.233 57.2663 526.666 57.084C527.122 56.8789 527.532 56.7308 527.896 56.6396C527.099 56.6396 526.188 56.8219 525.162 57.1865C524.137 57.5283 523.168 58.1436 522.257 59.0322C521.345 59.9209 520.571 61.14 519.933 62.6895C519.317 64.2161 519.01 66.153 519.01 68.5C519.01 70.8698 519.283 72.818 519.83 74.3447C520.377 75.8714 521.072 77.0791 521.915 77.9678C522.781 78.8564 523.738 79.4831 524.786 79.8477C525.857 80.1895 526.894 80.3604 527.896 80.3604ZM546.012 55.751C546.012 54.9762 546.08 54.2926 546.217 53.7002C546.354 53.085 546.616 52.5837 547.003 52.1963C547.39 51.8089 547.926 51.5127 548.609 51.3076C549.293 51.1025 550.182 51 551.275 51H565.255C566.28 51 567.158 51.1025 567.887 51.3076C568.639 51.5127 569.174 51.8659 569.493 52.3672C569.789 52.1621 570.143 51.9456 570.553 51.7178C570.986 51.4671 571.453 51.2393 571.954 51.0342C572.455 50.8291 572.991 50.6582 573.561 50.5215C574.13 50.3848 574.723 50.3164 575.338 50.3164C577.525 50.3164 579.223 51.0684 580.431 52.5723C581.661 54.0762 582.276 56.2865 582.276 59.2031V84.3936C582.276 84.7809 582.219 85.0885 582.105 85.3164C582.014 85.5215 581.889 85.681 581.729 85.7949C581.593 85.8861 581.422 85.943 581.217 85.9658C581.012 85.9886 580.807 86 580.602 86H578.414C577.822 86 577.434 85.8291 577.252 85.4873C577.092 85.1455 577.013 84.7809 577.013 84.3936V58.8613C577.013 57.5625 576.773 56.5713 576.295 55.8877C575.839 55.2041 575.099 54.8623 574.073 54.8623C573.549 54.8623 573.014 55.0104 572.467 55.3066C571.943 55.5801 571.521 55.8763 571.202 56.1953V81.2148C571.202 82.0124 571.134 82.7074 570.997 83.2998C570.86 83.8923 570.598 84.3936 570.211 84.8037C569.824 85.1911 569.288 85.4873 568.604 85.6924C567.921 85.8975 567.032 86 565.938 86H551.275C550.182 86 549.293 85.8975 548.609 85.6924C547.926 85.4873 547.39 85.1911 547.003 84.8037C546.616 84.4163 546.354 83.9264 546.217 83.334C546.08 82.7415 546.012 82.0465 546.012 81.249V55.751ZM568.297 56.0586C568.297 55.2611 568.08 54.7028 567.647 54.3838C567.237 54.042 566.565 53.8711 565.631 53.8711V83.1289C566.178 83.1289 566.622 83.1175 566.964 83.0947C567.306 83.0492 567.579 82.958 567.784 82.8213C567.989 82.6618 568.126 82.4453 568.194 82.1719C568.263 81.8757 568.297 81.4655 568.297 80.9414V56.0586ZM586.173 62.2109C585.694 62.2109 585.455 61.9603 585.455 61.459V58.7246C585.455 58.2461 585.694 58.0068 586.173 58.0068H589.728V50.248C589.728 49.9062 589.773 49.5645 589.864 49.2227C589.978 48.8809 590.263 48.6188 590.719 48.4365L609.586 41.4639C610.452 41.1449 611.17 40.9056 611.739 40.7461C612.309 40.5866 612.81 40.5068 613.243 40.5068C613.403 40.5068 613.574 40.541 613.756 40.6094C613.961 40.6549 614.143 40.7461 614.303 40.8828C614.485 41.0195 614.633 41.2132 614.747 41.4639C614.861 41.6917 614.918 41.9766 614.918 42.3184V58.0068H621.07C621.549 58.0068 621.788 58.2461 621.788 58.7246V61.459C621.788 61.9603 621.549 62.2109 621.07 62.2109H614.918V75.9854C614.918 77.6032 615.18 78.7425 615.704 79.4033C616.251 80.0641 617.083 80.3945 618.199 80.3945C618.45 80.3945 618.712 80.3717 618.985 80.3262C619.259 80.2578 619.509 80.2008 619.737 80.1553C619.988 80.0869 620.216 80.0299 620.421 79.9844C620.626 79.916 620.797 79.8818 620.934 79.8818C621.184 79.8818 621.31 80.0299 621.31 80.3262V82.958C621.31 83.4137 621.218 83.7214 621.036 83.8809C620.854 84.0404 620.694 84.1429 620.558 84.1885C619.692 84.5531 618.666 84.9176 617.481 85.2822C616.319 85.6468 615.055 85.9658 613.688 86.2393C612.343 86.5355 610.919 86.7633 609.415 86.9229C607.911 87.1051 606.407 87.1963 604.903 87.1963C602.739 87.1963 600.722 87.0824 598.854 86.8545C597.008 86.6494 595.401 86.1595 594.034 85.3848C592.69 84.61 591.63 83.4593 590.855 81.9326C590.104 80.4059 589.728 78.3324 589.728 75.7119V62.2109H586.173ZM612.013 45.3945C612.013 44.9388 611.956 44.5742 611.842 44.3008C611.751 44.0046 611.511 43.8564 611.124 43.8564C610.987 43.8564 610.805 43.8792 610.577 43.9248C610.372 43.9704 610.144 44.0501 609.894 44.1641L609.347 44.4033V76.874C609.347 77.8994 609.518 78.7311 609.859 79.3691C610.201 80.0072 610.623 80.5085 611.124 80.873C611.625 81.2376 612.161 81.4883 612.73 81.625C613.3 81.7389 613.813 81.7959 614.269 81.7959C613.927 81.5225 613.608 81.249 613.312 80.9756C613.038 80.6794 612.799 80.349 612.594 79.9844C612.411 79.597 612.263 79.1755 612.149 78.7197C612.058 78.2412 612.013 77.6715 612.013 77.0107V45.3945ZM657.984 80.3262C658.6 80.3262 659.158 80.2464 659.659 80.0869C660.16 79.9046 660.605 79.7109 660.992 79.5059C661.402 79.3008 661.733 79.1185 661.983 78.959C662.257 78.7767 662.462 78.6855 662.599 78.6855C662.804 78.6855 662.94 78.7197 663.009 78.7881C663.1 78.8564 663.202 78.9818 663.316 79.1641L664.513 81.0098C664.627 81.1921 664.684 81.3516 664.684 81.4883C664.684 81.6478 664.638 81.7731 664.547 81.8643C664.456 81.9554 664.365 82.0352 664.273 82.1035C663.521 82.6276 662.599 83.1973 661.505 83.8125C660.411 84.4049 659.135 84.9518 657.677 85.4531C656.241 85.9544 654.612 86.3646 652.789 86.6836C650.966 87.0254 648.961 87.1963 646.773 87.1963C645.064 87.1963 643.355 87.0596 641.646 86.7861C639.938 86.5127 638.297 86.0798 636.725 85.4873C635.175 84.8949 633.728 84.1201 632.384 83.1631C631.039 82.2061 629.866 81.0326 628.863 79.6426C627.883 78.2526 627.109 76.6462 626.539 74.8232C625.969 72.9775 625.685 70.8698 625.685 68.5C625.685 66.1758 625.969 64.1022 626.539 62.2793C627.109 60.4336 627.883 58.8158 628.863 57.4258C629.866 56.0358 631.039 54.8623 632.384 53.9053C633.728 52.9255 635.175 52.1393 636.725 51.5469C638.297 50.9316 639.938 50.4873 641.646 50.2139C643.355 49.9404 645.064 49.8037 646.773 49.8037C649.622 49.8037 652.265 50.1227 654.703 50.7607C657.164 51.3988 659.295 52.4469 661.095 53.9053C662.895 55.3636 664.308 57.2777 665.333 59.6475C666.358 62.0173 666.871 64.9225 666.871 68.3633V70.2773C666.871 70.6875 666.769 71.0065 666.563 71.2344C666.358 71.4622 666.017 71.5762 665.538 71.5762H651.388C651.57 73.2624 651.889 74.6751 652.345 75.8145C652.823 76.931 653.359 77.8311 653.951 78.5146C654.566 79.1755 655.227 79.6426 655.934 79.916C656.64 80.1895 657.324 80.3262 657.984 80.3262ZM662.018 67.3721C662.018 65.5492 661.869 64.0452 661.573 62.8604C661.3 61.6527 660.924 60.6956 660.445 59.9893C659.967 59.2601 659.397 58.7474 658.736 58.4512C658.098 58.1549 657.426 58.0068 656.72 58.0068C656.196 58.0068 655.626 58.1094 655.011 58.3145C654.396 58.5195 653.814 58.9525 653.268 59.6133C652.743 60.2741 652.288 61.2197 651.9 62.4502C651.536 63.6807 651.319 65.3213 651.251 67.3721H662.018ZM655.729 82.2402C654.999 82.0807 654.202 81.7617 653.336 81.2832C652.47 80.7819 651.661 80.0186 650.909 78.9932C650.157 77.9678 649.531 76.6234 649.029 74.96C648.528 73.2965 648.277 71.2116 648.277 68.7051C648.277 66.4036 648.494 64.4554 648.927 62.8604C649.382 61.2653 649.964 59.9551 650.67 58.9297C651.376 57.9043 652.174 57.141 653.062 56.6396C653.951 56.1156 654.84 55.7852 655.729 55.6484C654.361 55.694 653.051 55.9674 651.798 56.4688C650.567 56.9473 649.474 57.7106 648.517 58.7588C647.582 59.807 646.842 61.1514 646.295 62.792C645.748 64.4326 645.475 66.4036 645.475 68.7051C645.475 71.166 645.794 73.2624 646.432 74.9941C647.07 76.7031 647.879 78.1045 648.858 79.1982C649.861 80.2692 650.966 81.0439 652.174 81.5225C653.382 82.001 654.566 82.2402 655.729 82.2402ZM671.861 55.751C671.861 54.9762 671.93 54.2926 672.066 53.7002C672.203 53.085 672.465 52.5837 672.853 52.1963C673.24 51.8089 673.775 51.5127 674.459 51.3076C675.143 51.1025 676.031 51 677.125 51H691.104C692.13 51 693.007 51.1025 693.736 51.3076C694.488 51.5127 695.024 51.8659 695.343 52.3672C695.639 52.1621 695.992 51.9456 696.402 51.7178C696.835 51.4671 697.302 51.2393 697.804 51.0342C698.305 50.8291 698.84 50.6582 699.41 50.5215C699.98 50.3848 700.572 50.3164 701.188 50.3164C703.375 50.3164 705.073 51.0684 706.28 52.5723C707.511 54.0762 708.126 56.2865 708.126 59.2031V84.3936C708.126 84.7809 708.069 85.0885 707.955 85.3164C707.864 85.5215 707.739 85.681 707.579 85.7949C707.442 85.8861 707.271 85.943 707.066 85.9658C706.861 85.9886 706.656 86 706.451 86H704.264C703.671 86 703.284 85.8291 703.102 85.4873C702.942 85.1455 702.862 84.7809 702.862 84.3936V58.8613C702.862 57.5625 702.623 56.5713 702.145 55.8877C701.689 55.2041 700.948 54.8623 699.923 54.8623C699.399 54.8623 698.863 55.0104 698.316 55.3066C697.792 55.5801 697.371 55.8763 697.052 56.1953V81.2148C697.052 82.0124 696.983 82.7074 696.847 83.2998C696.71 83.8923 696.448 84.3936 696.061 84.8037C695.673 85.1911 695.138 85.4873 694.454 85.6924C693.771 85.8975 692.882 86 691.788 86H677.125C676.031 86 675.143 85.8975 674.459 85.6924C673.775 85.4873 673.24 85.1911 672.853 84.8037C672.465 84.4163 672.203 83.9264 672.066 83.334C671.93 82.7415 671.861 82.0465 671.861 81.249V55.751ZM694.146 56.0586C694.146 55.2611 693.93 54.7028 693.497 54.3838C693.087 54.042 692.415 53.8711 691.48 53.8711V83.1289C692.027 83.1289 692.472 83.1175 692.813 83.0947C693.155 83.0492 693.429 82.958 693.634 82.8213C693.839 82.6618 693.976 82.4453 694.044 82.1719C694.112 81.8757 694.146 81.4655 694.146 80.9414V56.0586ZM753.243 81.249C753.243 82.0465 753.175 82.7415 753.038 83.334C752.901 83.9264 752.639 84.4163 752.252 84.8037C751.865 85.1911 751.329 85.4873 750.646 85.6924C749.962 85.8975 749.073 86 747.979 86H733.043C731.38 85.9544 729.728 85.8063 728.087 85.5557C726.469 85.2822 724.92 84.8721 723.438 84.3252C721.98 83.7555 720.613 83.0264 719.337 82.1377C718.084 81.2262 716.99 80.1325 716.056 78.8564C715.144 77.5576 714.426 76.0423 713.902 74.3105C713.378 72.556 713.116 70.5508 713.116 68.2949C713.116 65.4922 713.515 63.0882 714.312 61.083C715.11 59.055 716.192 57.3574 717.56 55.9902C718.927 54.623 720.51 53.5407 722.311 52.7432C724.133 51.9456 726.048 51.3646 728.053 51V34.7988C728.053 34.0013 728.11 33.3063 728.224 32.7139C728.338 32.0986 728.577 31.5973 728.941 31.21C729.306 30.7998 729.807 30.5036 730.445 30.3213C731.083 30.1162 731.938 30.0137 733.009 30.0137H747.979C749.073 30.0137 749.962 30.1162 750.646 30.3213C751.329 30.5264 751.865 30.8226 752.252 31.21C752.639 31.5973 752.901 32.0986 753.038 32.7139C753.175 33.3063 753.243 33.9899 753.243 34.7646V81.249ZM717.97 68.3291C717.97 70.0153 718.163 71.599 718.551 73.0801C718.938 74.5384 719.531 75.8372 720.328 76.9766C721.148 78.0931 722.197 79.016 723.473 79.7451C724.749 80.4743 726.275 80.9414 728.053 81.1465V55.375C726.275 55.5801 724.749 56.0586 723.473 56.8105C722.197 57.5397 721.148 58.474 720.328 59.6133C719.531 60.7526 718.938 62.0628 718.551 63.5439C718.163 65.0251 717.97 66.6201 717.97 68.3291ZM750.338 35.0723C750.338 34.571 750.304 34.1722 750.235 33.876C750.167 33.5798 750.03 33.3633 749.825 33.2266C749.62 33.0671 749.347 32.9759 749.005 32.9531C748.663 32.9076 748.219 32.8848 747.672 32.8848V83.1289C748.219 83.1289 748.663 83.1175 749.005 83.0947C749.347 83.0492 749.62 82.958 749.825 82.8213C750.03 82.6618 750.167 82.4453 750.235 82.1719C750.304 81.8757 750.338 81.4655 750.338 80.9414V35.0723ZM800.309 82.582C798.577 82.582 796.856 82.4681 795.147 82.2402C793.438 81.9896 791.798 81.6022 790.226 81.0781C790.203 81.1921 790.191 81.306 790.191 81.4199C790.191 81.5111 790.191 81.6136 790.191 81.7275C790.191 82.4111 790.305 83.0492 790.533 83.6416C790.761 84.2113 791.114 84.7126 791.593 85.1455C792.094 85.5785 792.743 85.9202 793.541 86.1709C794.339 86.4215 795.307 86.5469 796.446 86.5469C797.7 86.5469 798.862 86.4671 799.933 86.3076C801.004 86.1709 802.052 86.0228 803.077 85.8633C804.103 85.681 805.128 85.5215 806.153 85.3848C807.201 85.2253 808.307 85.1455 809.469 85.1455C810.585 85.1455 811.679 85.3506 812.75 85.7607C813.821 86.1481 814.767 86.7178 815.587 87.4697C816.43 88.2445 817.102 89.1901 817.604 90.3066C818.105 91.4232 818.355 92.6992 818.355 94.1348C818.355 95.4108 818.23 96.5273 817.979 97.4844C817.752 98.4414 817.512 99.3529 817.262 100.219C817.216 100.333 817.125 100.469 816.988 100.629C816.874 100.788 816.646 100.868 816.305 100.868H813.775C813.456 100.868 813.251 100.788 813.16 100.629C813.069 100.492 813.001 100.378 812.955 100.287C812.522 99.2161 810.847 98.6807 807.931 98.6807C806.677 98.6807 805.436 98.749 804.205 98.8857C802.975 99.0452 801.721 99.2048 800.445 99.3643C799.169 99.5465 797.836 99.7061 796.446 99.8428C795.079 100.002 793.632 100.082 792.105 100.082C789.986 100.082 788.186 99.7288 786.705 99.0225C785.247 98.3161 784.062 97.416 783.15 96.3223C782.239 95.2513 781.578 94.0664 781.168 92.7676C780.758 91.4688 780.553 90.2383 780.553 89.0762C780.553 87.8229 780.689 86.6836 780.963 85.6582C781.259 84.61 781.635 83.6644 782.091 82.8213C782.547 81.9782 783.071 81.2262 783.663 80.5654C784.256 79.8818 784.848 79.2666 785.44 78.7197C783.572 77.4437 782.068 75.7803 780.929 73.7295C779.789 71.6787 779.22 69.1608 779.22 66.1758C779.22 64.1478 779.505 62.3363 780.074 60.7412C780.644 59.1234 781.419 57.7106 782.398 56.5029C783.401 55.2725 784.575 54.2357 785.919 53.3926C787.263 52.5495 788.71 51.8659 790.26 51.3418C791.832 50.7949 793.473 50.4076 795.182 50.1797C796.891 49.929 798.6 49.8037 800.309 49.8037C801.835 49.8037 803.396 49.8835 804.991 50.043C806.586 50.2025 808.136 50.4987 809.64 50.9316C811.166 51.3418 812.602 51.9001 813.946 52.6064C815.313 53.3128 816.521 54.2129 817.569 55.3066L821.295 51.5127C821.546 51.262 821.785 51.0798 822.013 50.9658C822.263 50.8519 822.491 50.7949 822.696 50.7949C823.061 50.7949 823.391 50.943 823.688 51.2393L825.362 53.0166C825.636 53.3356 825.772 53.666 825.772 54.0078C825.772 54.5091 825.488 54.9648 824.918 55.375L819.962 58.8613C820.418 59.8411 820.759 60.9121 820.987 62.0742C821.238 63.2363 821.363 64.5124 821.363 65.9023C821.363 68.2266 821.067 70.2546 820.475 71.9863C819.882 73.7181 819.062 75.1992 818.014 76.4297C816.988 77.6602 815.792 78.6742 814.425 79.4717C813.058 80.2692 811.588 80.8958 810.016 81.3516C808.466 81.8073 806.86 82.1263 805.196 82.3086C803.533 82.4909 801.904 82.582 800.309 82.582ZM811.725 62.416C811.611 62.3021 811.554 62.1312 811.554 61.9033C811.554 61.6299 811.656 61.3906 811.861 61.1855L814.049 58.9297C813.593 58.5879 813.092 58.3486 812.545 58.2119C812.021 58.0752 811.485 58.0068 810.938 58.0068C810.392 58.0068 809.776 58.098 809.093 58.2803C808.432 58.4398 807.794 58.8044 807.179 59.374C806.586 59.9437 806.085 60.7754 805.675 61.8691C805.265 62.9401 805.06 64.3757 805.06 66.1758C805.06 67.9759 805.219 69.4229 805.538 70.5166C805.88 71.5876 806.324 72.4079 806.871 72.9775C807.418 73.5472 808.045 73.9232 808.751 74.1055C809.457 74.2878 810.187 74.3789 810.938 74.3789C811.645 74.3789 812.34 74.265 813.023 74.0371C813.707 73.7865 814.299 73.3535 814.801 72.7383C815.325 72.1003 815.746 71.2458 816.065 70.1748C816.384 69.0811 816.544 67.6797 816.544 65.9707C816.544 64.2617 816.35 62.849 815.963 61.7324L813.673 63.3389C813.491 63.4528 813.308 63.5098 813.126 63.5098C812.83 63.5098 812.59 63.3958 812.408 63.168L811.725 62.416ZM808.033 76.2246C807.372 76.1335 806.689 75.8828 805.982 75.4727C805.299 75.0625 804.672 74.4587 804.103 73.6611C803.533 72.8408 803.066 71.8154 802.701 70.585C802.337 69.3545 802.154 67.8848 802.154 66.1758C802.154 64.4668 802.371 63.0085 802.804 61.8008C803.259 60.5703 803.795 59.5677 804.41 58.793C805.025 57.9954 805.663 57.403 806.324 57.0156C807.008 56.6283 807.577 56.389 808.033 56.2979C807.145 56.2979 806.199 56.4801 805.196 56.8447C804.194 57.1865 803.259 57.7562 802.394 58.5537C801.55 59.3285 800.844 60.3424 800.274 61.5957C799.705 62.849 799.42 64.3757 799.42 66.1758C799.42 67.9759 799.659 69.514 800.138 70.79C800.639 72.0661 801.288 73.1029 802.086 73.9004C802.883 74.6979 803.795 75.2904 804.82 75.6777C805.868 76.0423 806.939 76.2246 808.033 76.2246ZM810.392 87.9482C811.121 88.7002 811.69 89.5889 812.101 90.6143C812.511 91.6396 812.716 92.8132 812.716 94.1348C812.716 94.7044 812.682 95.1829 812.613 95.5703C812.545 95.9577 812.488 96.2653 812.442 96.4932C812.921 96.5615 813.399 96.7552 813.878 97.0742C814.356 97.3932 814.687 97.7008 814.869 97.9971C815.006 97.7008 815.131 97.2109 815.245 96.5273C815.382 95.8438 815.45 95.0462 815.45 94.1348C815.45 92.4486 814.994 91.0472 814.083 89.9307C813.194 88.8141 811.964 88.1533 810.392 87.9482ZM827.447 55.751C827.447 54.9762 827.516 54.2926 827.652 53.7002C827.789 53.085 828.051 52.5837 828.438 52.1963C828.826 51.8089 829.361 51.5127 830.045 51.3076C830.729 51.1025 831.617 51 832.711 51H847.682C848.73 51 849.573 51.1025 850.211 51.3076C850.872 51.4899 851.384 51.7747 851.749 52.1621C852.114 52.5495 852.353 53.0394 852.467 53.6318C852.581 54.2243 852.638 54.9307 852.638 55.751V81.3174C852.638 82.0921 852.581 82.7757 852.467 83.3682C852.353 83.9378 852.114 84.4277 851.749 84.8379C851.384 85.2253 850.872 85.5215 850.211 85.7266C849.573 85.9089 848.73 86 847.682 86H832.711C831.617 86 830.729 85.8975 830.045 85.6924C829.361 85.4873 828.826 85.1911 828.438 84.8037C828.051 84.4163 827.789 83.9264 827.652 83.334C827.516 82.7415 827.447 82.0465 827.447 81.249V55.751ZM828.712 36.3711C828.712 34.7988 829.008 33.3177 829.601 31.9277C830.216 30.5378 831.036 29.3301 832.062 28.3047C833.087 27.2793 834.295 26.4704 835.685 25.8779C837.075 25.2627 838.556 24.9551 840.128 24.9551C841.677 24.9551 843.136 25.2627 844.503 25.8779C845.893 26.4704 847.101 27.2793 848.126 28.3047C849.151 29.3301 849.96 30.5378 850.553 31.9277C851.168 33.3177 851.476 34.7988 851.476 36.3711C851.476 37.9206 851.168 39.3903 850.553 40.7803C849.96 42.1475 849.151 43.3438 848.126 44.3691C847.101 45.3945 845.893 46.2148 844.503 46.8301C843.136 47.4225 841.677 47.7188 840.128 47.7188C838.556 47.7188 837.075 47.4225 835.685 46.8301C834.295 46.2148 833.087 45.3945 832.062 44.3691C831.036 43.3438 830.216 42.1475 829.601 40.7803C829.008 39.3903 828.712 37.9206 828.712 36.3711ZM849.732 56.0586C849.732 55.5573 849.698 55.1585 849.63 54.8623C849.562 54.5661 849.425 54.3496 849.22 54.2129C849.015 54.0534 848.741 53.9622 848.399 53.9395C848.058 53.8939 847.613 53.8711 847.066 53.8711V83.1289C847.613 83.1289 848.058 83.1175 848.399 83.0947C848.741 83.0492 849.015 82.958 849.22 82.8213C849.425 82.6618 849.562 82.4453 849.63 82.1719C849.698 81.8757 849.732 81.4655 849.732 80.9414V56.0586ZM845.768 36.3711C845.768 37.9661 845.449 39.4701 844.811 40.8828C844.195 42.2956 843.352 43.526 842.281 44.5742C843.193 44.3464 844.024 43.9704 844.776 43.4463C845.551 42.9222 846.212 42.307 846.759 41.6006C847.328 40.8714 847.773 40.0625 848.092 39.1738C848.411 38.2852 848.57 37.3509 848.57 36.3711C848.57 35.3913 848.411 34.457 848.092 33.5684C847.773 32.6797 847.328 31.8822 846.759 31.1758C846.212 30.4466 845.551 29.8314 844.776 29.3301C844.024 28.806 843.193 28.4186 842.281 28.168C843.352 29.2161 844.195 30.4466 844.811 31.8594C845.449 33.2721 845.768 34.776 845.768 36.3711ZM858.961 55.751C858.961 54.9762 859.029 54.2926 859.166 53.7002C859.303 53.085 859.565 52.5837 859.952 52.1963C860.34 51.8089 860.875 51.5127 861.559 51.3076C862.242 51.1025 863.131 51 864.225 51H879.195C880.243 51 881.087 51.1025 881.725 51.3076C882.363 51.5127 882.864 51.8203 883.229 52.2305C883.593 52.6406 883.832 53.1533 883.946 53.7686C884.083 54.3838 884.151 55.1016 884.151 55.9219V58.4512L891.739 51.0684C892.241 50.5898 892.708 50.3506 893.141 50.3506C893.391 50.3506 893.608 50.4076 893.79 50.5215C893.995 50.6126 894.166 50.7266 894.303 50.8633L895.841 52.4697C896.183 52.8115 896.354 53.1875 896.354 53.5977C896.354 53.8483 896.274 54.1104 896.114 54.3838C895.978 54.6344 895.75 54.8851 895.431 55.1357L884.151 63.8857V81.1807C884.151 81.9782 884.094 82.6846 883.98 83.2998C883.867 83.8923 883.616 84.3936 883.229 84.8037C882.841 85.1911 882.283 85.4873 881.554 85.6924C880.825 85.8975 879.833 86 878.58 86H864.225C863.131 86 862.242 85.8975 861.559 85.6924C860.875 85.4873 860.34 85.1911 859.952 84.8037C859.565 84.4163 859.303 83.9264 859.166 83.334C859.029 82.7415 858.961 82.0465 858.961 81.249V55.751ZM881.246 56.0586C881.246 55.5573 881.212 55.1585 881.144 54.8623C881.075 54.5661 880.938 54.3496 880.733 54.2129C880.528 54.0534 880.255 53.9622 879.913 53.9395C879.571 53.8939 879.127 53.8711 878.58 53.8711V83.1289C879.127 83.1289 879.571 83.1175 879.913 83.0947C880.255 83.0492 880.528 82.958 880.733 82.8213C880.938 82.6618 881.075 82.4453 881.144 82.1719C881.212 81.8757 881.246 81.4655 881.246 80.9414V56.0586ZM896.969 34.7646C896.969 33.9899 897.037 33.3063 897.174 32.7139C897.311 32.0986 897.573 31.5973 897.96 31.21C898.347 30.8226 898.883 30.5264 899.566 30.3213C900.25 30.1162 901.139 30.0137 902.232 30.0137H917.203C918.251 30.0137 919.094 30.1162 919.732 30.3213C920.37 30.5036 920.872 30.7884 921.236 31.1758C921.601 31.5632 921.84 32.0531 921.954 32.6455C922.091 33.238 922.159 33.9329 922.159 34.7305V81.3174C922.159 82.0921 922.091 82.7757 921.954 83.3682C921.817 83.9378 921.567 84.4277 921.202 84.8379C920.838 85.2253 920.325 85.5215 919.664 85.7266C919.026 85.9089 918.183 86 917.135 86H902.232C901.139 86 900.25 85.8975 899.566 85.6924C898.883 85.4873 898.347 85.1911 897.96 84.8037C897.573 84.4163 897.311 83.9264 897.174 83.334C897.037 82.7415 896.969 82.0465 896.969 81.249V34.7646ZM919.254 35.0723C919.254 34.571 919.22 34.1722 919.151 33.876C919.083 33.5798 918.946 33.3633 918.741 33.2266C918.536 33.0671 918.263 32.9759 917.921 32.9531C917.579 32.9076 917.135 32.8848 916.588 32.8848V83.1289C917.135 83.1289 917.579 83.1175 917.921 83.0947C918.263 83.0492 918.536 82.958 918.741 82.8213C918.946 82.6618 919.083 82.4453 919.151 82.1719C919.22 81.8757 919.254 81.4655 919.254 80.9414V35.0723Z" fill="#22C55E"/>
</g>
<defs>
<filter id="filter0_d_0_3" x="0.341797" y="0.955078" width="975.817" height="163.913" filterUnits="userSpaceOnUse" color-interpolation-filters="sRGB">
<feFlood flood-opacity="0" result="BackgroundImageFix"/>
<feColorMatrix in="SourceAlpha" type="matrix" values="0 0 0 0 0 0 0 0 0 0 0 0 0 0 0 0 0 0 127 0" result="hardAlpha"/>
<feOffset dx="10" dy="20"/>
<feGaussianBlur stdDeviation="22"/>
<feComposite in2="hardAlpha" operator="out"/>
<feColorMatrix type="matrix" values="0 0 0 0 0.133333 0 0 0 0 0.772549 0 0 0 0 0.368627 0 0 0 0.45 0"/>
<feBlend mode="normal" in2="BackgroundImageFix" result="effect1_dropShadow_0_3"/>
<feBlend mode="normal" in="SourceGraphic" in2="effect1_dropShadow_0_3" result="shape"/>
</filter>
</defs>
</svg>
