<svg width="64" height="76" viewBox="0 0 64 76" fill="none" xmlns="http://www.w3.org/2000/svg">
<path fill-rule="evenodd" clip-rule="evenodd" d="M58.4797 64.8305C60.7087 61.4303 61.5399 59.6924 63.24 55.8767C50.697 51.1164 48.6947 33.2464 61.0865 26.4082C57.3085 21.6479 51.9816 18.89 46.9568 18.89C43.3299 18.89 40.8364 19.8346 38.6074 20.7035C36.7184 21.4213 35.0183 22.0635 32.9026 22.0635C30.6358 22.0635 28.6335 21.3458 26.5178 20.5902C24.2132 19.759 21.7952 18.89 18.7728 18.89C13.1435 18.89 7.13655 22.328 3.32076 28.2217C-2.044 36.5333 -1.0995 52.0987 7.55213 65.3972C10.6501 70.1575 14.8059 75.4845 20.2084 75.5601C22.4752 75.5978 23.9487 74.9178 25.5733 74.2C27.4245 73.3688 29.4269 72.4621 32.9404 72.4621C36.454 72.4243 38.4185 73.3688 40.2697 74.2C41.8565 74.9178 43.2921 75.5978 45.5212 75.5601C50.9993 75.4845 55.3818 69.5908 58.4797 64.8305Z" fill="black"/>
<path fill-rule="evenodd" clip-rule="evenodd" d="M46.1646 0C46.769 4.1558 45.0689 8.27386 42.8399 11.1451C40.4598 14.2431 36.304 16.661 32.2993 16.5099C31.5815 12.5052 33.4327 8.38713 35.6995 5.62919C38.2308 2.60678 42.4999 0.26446 46.1646 0Z" fill="black"/>
</svg>
