<svg width="700" height="137" viewBox="0 0 700 137" fill="none" xmlns="http://www.w3.org/2000/svg">
<g filter="url(#filter0_d_0_3)">
<path d="M68.9688 72L67.2812 63.9375H54.2188L52.5625 72H34.7812V56.25L38.625 55.4688L47.8438 24H73.6562L82.9062 55.4688L86.75 56.25V72H68.9688ZM56.9062 53.2188H64.5938L60.75 35.125L56.9062 53.2188ZM129.438 58.1562C129.438 60.0938 129.156 61.8125 128.594 63.3125C128.052 64.7917 127.302 66.0833 126.344 67.1875C125.406 68.2708 124.281 69.1771 122.969 69.9062C121.677 70.6354 120.281 71.2292 118.781 71.6875C117.281 72.125 115.708 72.375 114.062 72.4375C112.438 72.5208 110.812 72.5625 109.188 72.5625C106.938 72.5625 104.906 72.5104 103.094 72.4062C101.281 72.3021 99.6562 72.0729 98.2188 71.7188C96.8021 71.3646 95.5417 70.9792 94.4375 70.5625C93.3542 70.125 92.3958 69.6979 91.5625 69.2812V58.4375H100.406C101.281 59.8125 102.281 60.8229 103.406 61.4688C104.531 62.1146 105.688 62.4375 106.875 62.4375C107.229 62.4375 107.625 62.4062 108.062 62.3438C108.5 62.2812 108.906 62.0833 109.281 61.75C109.656 61.4167 109.969 60.9062 110.219 60.2188C110.49 59.5104 110.625 58.5208 110.625 57.25C108.938 57.1042 107.26 56.8958 105.594 56.625C103.948 56.3333 102.365 55.9479 100.844 55.4688C99.3438 54.9896 97.9479 54.3854 96.6562 53.6562C95.3646 52.9062 94.2396 52.0104 93.2812 50.9688C92.3438 49.9062 91.6042 48.6667 91.0625 47.25C90.5208 45.8125 90.25 44.1667 90.25 42.3125C90.25 40.1875 90.5208 38.3333 91.0625 36.75C91.6042 35.1458 92.3438 33.7708 93.2812 32.625C94.2188 31.4792 95.3229 30.5312 96.5938 29.7812C97.8854 29.0312 99.2708 28.4375 100.75 28C102.229 27.5625 103.771 27.2604 105.375 27.0938C106.979 26.9062 108.583 26.8125 110.188 26.8125C112.458 26.8125 114.49 26.9271 116.281 27.1562C118.094 27.3854 119.708 27.6771 121.125 28.0312C122.562 28.3854 123.823 28.7812 124.906 29.2188C126.01 29.6354 126.99 30.0417 127.844 30.4375V41.375H118.375C117.583 39.875 116.677 38.7812 115.656 38.0938C114.635 37.4062 113.594 37.0625 112.531 37.0625C112.177 37.0625 111.771 37.125 111.312 37.25C110.854 37.3542 110.427 37.6042 110.031 38C109.635 38.3958 109.302 38.9792 109.031 39.75C108.76 40.5208 108.625 41.5625 108.625 42.875C112.062 43 115.073 43.3646 117.656 43.9688C120.26 44.5729 122.438 45.4792 124.188 46.6875C125.938 47.875 127.25 49.4167 128.125 51.3125C129 53.1875 129.438 55.4688 129.438 58.1562ZM134.5 28H160.812V40.375L157.062 41.0938V46.25H172.094V41.0938L168.344 40.375V27.8438H194.656V40.375L190.906 41.0938V58.8125L194.656 59.5312V72H168.344V59.5312L172.094 58.8125V53.5938H157.062V58.8125L160.812 59.5312V72H134.5V59.5312L138.25 58.8125V41.0938L134.5 40.375V28ZM214.688 72.0312L202.688 41L198.219 40.3125V28H226.75V40.3125L223.5 41L228.594 57.375L233.688 41L230.438 40.3125V28H258.969V40.3125L255.75 41L260.812 57.375L265.906 41L262.656 40.3125V27.8438H284.281V40.3125L279.844 41L267.844 72.0312H246.938L241.25 55.125L235.625 72.0312H214.688ZM287.844 28H314.156V40.3125L310.406 41.0312V58.8125L314.156 59.5312V72H287.844V59.5312L291.594 58.8125V41.0312L287.844 40.3125V28ZM335.25 48.9062V58.8125L339.031 59.5V72H320.219V59.5312L323.969 58.8125V41.0312L320.219 40.3125V28H342.781L357.812 51.7188V41.0938L354.062 40.3125V28H372.844V40.3125L369.094 41.0312V58.8125L372.844 59.5312V72H350.281L335.25 48.9062ZM378.906 28H405.219V40.3125L401.469 41.0312V58.8125L405.219 59.5312V72H378.906V59.5312L382.656 58.8125V41.0312L378.906 40.3125V28ZM431 24H458.219C461.76 24 464.833 24.1667 467.438 24.5C470.042 24.8125 472.26 25.2708 474.094 25.875C475.927 26.4792 477.417 27.2188 478.562 28.0938C479.729 28.9688 480.635 29.9479 481.281 31.0312C481.948 32.1146 482.396 33.3021 482.625 34.5938C482.875 35.8854 483 37.2604 483 38.7188C483 40.2188 482.854 41.625 482.562 42.9375C482.292 44.25 481.781 45.4583 481.031 46.5625C480.281 47.6458 479.24 48.625 477.906 49.5C476.594 50.375 474.896 51.1146 472.812 51.7188C470.75 52.3021 468.25 52.7604 465.312 53.0938C462.396 53.4062 458.958 53.5625 455 53.5625V57.6562L459 58.4375V72H431V58.4375L435 57.6562V38.3438L431 37.5625V24ZM455 44.9688C456.208 44.9688 457.302 44.9062 458.281 44.7812C459.281 44.6562 460.125 44.3958 460.812 44C461.521 43.5833 462.062 42.9896 462.438 42.2188C462.812 41.4479 463 40.4062 463 39.0938C463 37.8229 462.812 36.8125 462.438 36.0625C462.062 35.2917 461.521 34.7083 460.812 34.3125C460.125 33.9167 459.281 33.6562 458.281 33.5312C457.302 33.4062 456.208 33.3438 455 33.3438V44.9688ZM513.812 72L512.25 64.5938H499.969L498.406 72H481.688V57.5L485.312 56.7812L493.969 28H518.219L526.938 56.7812L530.531 57.5V72H513.812ZM501.875 54.7188H510.344L506.094 37.4375L501.875 54.7188ZM542.656 39.625C541.573 39.625 540.615 39.7708 539.781 40.0625C538.948 40.3542 538.25 40.7188 537.688 41.1562C537.125 41.5938 536.698 42.0729 536.406 42.5938C536.115 43.0938 535.969 43.5625 535.969 44H530.75V28H573.375V44H568.156C568.156 43.5625 568.01 43.0938 567.719 42.5938C567.427 42.0729 567 41.5938 566.438 41.1562C565.875 40.7188 565.177 40.3542 564.344 40.0625C563.51 39.7708 562.552 39.625 561.469 39.625V58.8125L565.219 59.5312V72H538.906V59.5312L542.656 58.8125V39.625ZM577.656 28H603.969V40.3125L600.219 41.0312V58.8125L603.969 59.5312V72H577.656V59.5312L581.406 58.8125V41.0312L577.656 40.3125V28ZM632.562 60C633.438 60 634.271 59.8854 635.062 59.6562C635.854 59.4062 636.583 59.0938 637.25 58.7188C637.938 58.3229 638.552 57.8958 639.094 57.4375C639.656 56.9583 640.146 56.4792 640.562 56H645.781V72H610.031V59.5312L613.781 58.8125V41.0312L610.031 40.3125V28H636.344V40.3125L632.562 41.0312V60Z" fill="#22C55E"/>
</g>
<defs>
<filter id="filter0_d_0_3" x="0.78125" y="0" width="699" height="136.562" filterUnits="userSpaceOnUse" color-interpolation-filters="sRGB">
<feFlood flood-opacity="0" result="BackgroundImageFix"/>
<feColorMatrix in="SourceAlpha" type="matrix" values="0 0 0 0 0 0 0 0 0 0 0 0 0 0 0 0 0 0 127 0" result="hardAlpha"/>
<feOffset dx="10" dy="20"/>
<feGaussianBlur stdDeviation="22"/>
<feComposite in2="hardAlpha" operator="out"/>
<feColorMatrix type="matrix" values="0 0 0 0 0.133333 0 0 0 0 0.772549 0 0 0 0 0.368627 0 0 0 0.45 0"/>
<feBlend mode="normal" in2="BackgroundImageFix" result="effect1_dropShadow_0_3"/>
<feBlend mode="normal" in="SourceGraphic" in2="effect1_dropShadow_0_3" result="shape"/>
</filter>
</defs>
</svg>
